<svg id="visual" viewBox="0 0 900 600" width="900" height="600" xmlns="http://www.w3.org/2000/svg" xmlns:xlink="http://www.w3.org/1999/xlink" version="1.1"><path d="M0 73L50 76C100 79 200 85 300 98C400 111 500 131 600 146C700 161 800 171 850 176L900 181L900 0L850 0C800 0 700 0 600 0C500 0 400 0 300 0C200 0 100 0 50 0L0 0Z" fill="#4f6ea5"></path><path d="M0 121L50 122C100 123 200 125 300 136C400 147 500 167 600 182C700 197 800 207 850 212L900 217L900 179L850 174C800 169 700 159 600 144C500 129 400 109 300 96C200 83 100 77 50 74L0 71Z" fill="#44659d"></path><path d="M0 175L50 179C100 183 200 191 300 200C400 209 500 219 600 229C700 239 800 249 850 254L900 259L900 215L850 210C800 205 700 195 600 180C500 165 400 145 300 134C200 123 100 121 50 120L0 119Z" fill="#3a5b94"></path><path d="M0 217L50 218C100 219 200 221 300 229C400 237 500 251 600 262C700 273 800 281 850 285L900 289L900 257L850 252C800 247 700 237 600 227C500 217 400 207 300 198C200 189 100 181 50 177L0 173Z" fill="#2e528c"></path><path d="M0 259L50 257C100 255 200 251 300 256C400 261 500 275 600 289C700 303 800 317 850 324L900 331L900 287L850 283C800 279 700 271 600 260C500 249 400 235 300 227C200 219 100 217 50 216L0 215Z" fill="#224984"></path><path d="M0 313L50 307C100 301 200 289 300 294C400 299 500 321 600 338C700 355 800 367 850 373L900 379L900 329L850 322C800 315 700 301 600 287C500 273 400 259 300 254C200 249 100 253 50 255L0 257Z" fill="#1f447b"></path><path d="M0 457L50 450C100 443 200 429 300 432C400 435 500 455 600 467C700 479 800 483 850 485L900 487L900 377L850 371C800 365 700 353 600 336C500 319 400 297 300 292C200 287 100 299 50 305L0 311Z" fill="#1c3f72"></path><path d="M0 553L50 548C100 543 200 533 300 532C400 531 500 539 600 541C700 543 800 539 850 537L900 535L900 485L850 483C800 481 700 477 600 465C500 453 400 433 300 430C200 427 100 441 50 448L0 455Z" fill="#193b6a"></path><path d="M0 601L50 601C100 601 200 601 300 601C400 601 500 601 600 601C700 601 800 601 850 601L900 601L900 533L850 535C800 537 700 541 600 539C500 537 400 529 300 530C200 531 100 541 50 546L0 551Z" fill="#173661"></path></svg>